<svg id="Layer_1" data-name="Layer 1" xmlns="http://www.w3.org/2000/svg" xmlns:xlink="http://www.w3.org/1999/xlink" viewBox="0 0 400 399.44192"><defs><linearGradient id="linear-gradient" x1="-208.53276" y1="-443.18905" x2="217.12582" y2="-443.18905" gradientTransform="translate(277.58464 640.04108) rotate(-10.08853)" gradientUnits="userSpaceOnUse"><stop offset="0" stop-color="#ff45ed"/><stop offset="1" stop-color="#087cfa"/></linearGradient><linearGradient id="linear-gradient-2" x1="-64.69828" y1="486.81103" x2="941.62444" y2="141.26648" gradientTransform="matrix(1, 0, 0, 1, 0, 0)" xlink:href="#linear-gradient"/></defs><path d="M290.888,1.44061a92.1608,92.1608,0,0,0-75.8682,95.6937l-.10793-.00117a26.62215,26.62215,0,0,1-30.74273,27.9242c-2.32392-.77128-4.67547-1.47108-7.0452-2.12108a140.13292,140.13292,0,1,0,100.976,110.6265,141.15064,141.15064,0,0,0-3.91672-16.08672l.18023-.03311q-.14625-.63966-.26245-1.29277a26.69964,26.69964,0,0,1,26.33474-31.354l.02827-.67445A92.16969,92.16969,0,1,0,290.888,1.44061ZM180.95344,124.327c-.24882-.07073-.49538-.1427-.74152-.22056C180.45742,124.18422,180.70526,124.25638,180.95344,124.327Z" fill="url(#linear-gradient)"/><circle cx="346.25771" cy="345.69964" r="53.74229" fill="url(#linear-gradient-2)"/></svg>